<svg viewBox="-1609.3199999999997 -563 3357.6800000000003 1052" xmlns="http://www.w3.org/2000/svg">
<path d="M-60,-6 C0,-6 260,-253 320,-253L695.76,-253" stroke="#FF9500" stroke-width="4" fill="none" /><path d="M-60,-6 C0,-6 260,242 320,242L745.8399999999999,242" stroke="#2997FF" stroke-width="4" fill="none" /><path d="M-626.8399999999998,-6 L-440,-6 C-380,-6 -120,-6 -60,-6" stroke="#5DD6CC" stroke-width="4" fill="none" /><g transform="translate(-320, -36)">
              <rect x="0" y="0" width="519" height="60" fill="#F7F7F7" />
              <text x="259.5" y="30" fill="black" font-family="Arial, monospace" font-size="24" text-anchor="middle" dominant-baseline="middle">🤖 AI-Mediated Learning &amp; Human Agency</text>
            </g><path d="M695,-253 C755,-253 755,-450 815,-450L1021.6399999999999,-450" stroke="#FF9500" stroke-width="4" fill="none" /><path d="M695,-253 C755,-253 755,-305 815,-305L1060.52,-305" stroke="#FF9500" stroke-width="4" fill="none" /><path d="M695,-253 C755,-253 755,-181 815,-181L1029.6399999999999,-181" stroke="#FF9500" stroke-width="4" fill="none" /><path d="M695,-253 C755,-253 755,-57 815,-57L1069.8,-57" stroke="#FF9500" stroke-width="4" fill="none" /><text x="320" y="-260" fill="black" font-family="Arial, monospace" font-size="16">📚 Reconceptualizing Self-Directed Learning</text><path d="M1022,-450 C1082,-450 1082,-492 1142,-492L1419.2,-492" stroke="#FF9500" stroke-width="4" fill="none" /><path d="M1022,-450 C1082,-450 1082,-450 1142,-450L1493.6,-450" stroke="#FF9500" stroke-width="4" fill="none" /><path d="M1022,-450 C1082,-450 1082,-408 1142,-408L1440.8,-408" stroke="#FF9500" stroke-width="4" fill="none" /><text x="815" y="-457" fill="black" font-family="Arial, monospace" font-size="16">Theoretical Framework</text><text x="1142" y="-499" fill="black" font-family="Arial, monospace" font-size="16">IEEE Trans. Learning Tech 2024</text><text x="1142" y="-457" fill="black" font-family="Arial, monospace" font-size="16">Personal attributes + processes + context</text><text x="1142" y="-415" fill="black" font-family="Arial, monospace" font-size="16">Three interdependent mechanisms</text><path d="M1061,-305 C1121,-305 1121,-326 1181,-326L1514.84,-326" stroke="#FF9500" stroke-width="4" fill="none" /><path d="M1061,-305 C1121,-305 1121,-284 1181,-284L1575.6399999999999,-284" stroke="#FF9500" stroke-width="4" fill="none" /><text x="815" y="-312" fill="black" font-family="Arial, monospace" font-size="16">PA-SDA Scale Development</text><text x="1181" y="-333" fill="black" font-family="Arial, monospace" font-size="16">44-item scale, cross-cultural validation</text><text x="1181" y="-291" fill="black" font-family="Arial, monospace" font-size="16">2025 Global Smart Education Innovation Award</text><path d="M1030,-181 C1090,-181 1090,-202 1150,-202L1384.6399999999999,-202" stroke="#FF9500" stroke-width="4" fill="none" /><path d="M1030,-181 C1090,-181 1090,-160 1150,-160L1486.4,-160" stroke="#FF9500" stroke-width="4" fill="none" /><text x="815" y="-188" fill="black" font-family="Arial, monospace" font-size="16">Structural Relationships</text><text x="1150" y="-209" fill="black" font-family="Arial, monospace" font-size="16">699 learners, 47 countries</text><text x="1150" y="-167" fill="black" font-family="Arial, monospace" font-size="16">Motivation as critical mediating variable</text><path d="M1070,-57 C1130,-57 1130,-78 1190,-78L1389.76,-78" stroke="#FF9500" stroke-width="4" fill="none" /><path d="M1070,-57 C1130,-57 1130,-36 1190,-36L1580,-36" stroke="#FF9500" stroke-width="4" fill="none" /><text x="815" y="-64" fill="black" font-family="Arial, monospace" font-size="16">Dissertation: Learner Profiles</text><text x="1190" y="-85" fill="black" font-family="Arial, monospace" font-size="16">Latent profile analysis</text><text x="1190" y="-43" fill="black" font-family="Arial, monospace" font-size="16">Three profiles: snapshots of learners in motion</text><path d="M745,242 C805,242 805,107 865,107L1040.12,107" stroke="#2997FF" stroke-width="4" fill="none" /><path d="M745,242 C805,242 805,231 865,231L1120.6,231" stroke="#2997FF" stroke-width="4" fill="none" /><path d="M745,242 C805,242 805,376 865,376L1073.24,376" stroke="#2997FF" stroke-width="4" fill="none" /><text x="320" y="235" fill="black" font-family="Arial, monospace" font-size="16">💬 Understanding ChatGPT &amp; Human-AI Interaction</text><path d="M1041,107 C1101,107 1101,86 1161,86L1438.8400000000001,86" stroke="#2997FF" stroke-width="4" fill="none" /><path d="M1041,107 C1101,107 1101,128 1161,128L1430.04,128" stroke="#2997FF" stroke-width="4" fill="none" /><text x="865" y="100" fill="black" font-family="Arial, monospace" font-size="16">Systematic Review</text><text x="1161" y="79" fill="black" font-family="Arial, monospace" font-size="16">36 studies, ChatGPT's first year</text><text x="1161" y="121" fill="black" font-family="Arial, monospace" font-size="16">Multifaceted roles in education</text><path d="M1121,231 C1181,231 1181,210 1241,210L1474.68,210" stroke="#2997FF" stroke-width="4" fill="none" /><path d="M1121,231 C1181,231 1181,252 1241,252L1527.96,252" stroke="#2997FF" stroke-width="4" fill="none" /><text x="865" y="224" fill="black" font-family="Arial, monospace" font-size="16">Mixed-Methods Investigation</text><text x="1241" y="203" fill="black" font-family="Arial, monospace" font-size="16">73 nontraditional students</text><text x="1241" y="245" fill="black" font-family="Arial, monospace" font-size="16">Strategic vs exploratory inquirers</text><path d="M1074,376 C1134,376 1134,334 1194,334L1492.48,334" stroke="#2997FF" stroke-width="4" fill="none" /><path d="M1074,376 C1134,376 1134,376 1194,376L1551.84,376" stroke="#2997FF" stroke-width="4" fill="none" /><path d="M1074,376 C1134,376 1134,418 1194,418L1638.72,418" stroke="#2997FF" stroke-width="4" fill="none" /><text x="865" y="369" fill="black" font-family="Arial, monospace" font-size="16">Collaborative Research</text><text x="1194" y="327" fill="black" font-family="Arial, monospace" font-size="16">Intel Labs: Kid Space, embodied AI</text><text x="1194" y="369" fill="black" font-family="Arial, monospace" font-size="16">NSF T3-CIDERS: LLM-generated personas</text><text x="1194" y="411" fill="black" font-family="Arial, monospace" font-size="16">Workforce learning: dynamic learner-state ecosystem</text><path d="M-1060.5199999999998,-140 L-747,-140 C-687,-140 -687,-6 -627,-6" stroke="#5DD6CC" stroke-width="4" fill="none" /><path d="M-1000.1999999999998,-16 L-747,-16 C-687,-16 -687,-6 -627,-6" stroke="#5DD6CC" stroke-width="4" fill="none" /><path d="M-1027.7199999999998,129 L-747,129 C-687,129 -687,-6 -627,-6" stroke="#5DD6CC" stroke-width="4" fill="none" /><text x="-627" y="-13" fill="black" font-family="Arial, monospace" font-size="16">🔮 Future Directions</text><path d="M-1496.5999999999997,-161 L-1181,-161 C-1121,-161 -1121,-140 -1061,-140" stroke="#5DD6CC" stroke-width="4" fill="none" /><path d="M-1499.3199999999997,-119 L-1181,-119 C-1121,-119 -1121,-140 -1061,-140" stroke="#5DD6CC" stroke-width="4" fill="none" /><text x="-1061" y="-147" fill="black" font-family="Arial, monospace" font-size="16">Authenticity in AI-Mediated Learning</text><text x="-1497" y="-168" fill="black" font-family="Arial, monospace" font-size="16">Genuine engagement vs dependency</text><text x="-1499" y="-126" fill="black" font-family="Arial, monospace" font-size="16">Preserving learner voice and integrity</text><path d="M-1325.3999999999999,-37 L-1120,-37 C-1060,-37 -1060,-16 -1000,-16" stroke="#5DD6CC" stroke-width="4" fill="none" /><path d="M-1359.1599999999999,5 L-1120,5 C-1060,5 -1060,-16 -1000,-16" stroke="#5DD6CC" stroke-width="4" fill="none" /><text x="-1000" y="-23" fill="black" font-family="Arial, monospace" font-size="16">AI Literacy as Social Practice</text><text x="-1325" y="-44" fill="black" font-family="Arial, monospace" font-size="16">Co-constructed norms</text><text x="-1359" y="-2" fill="black" font-family="Arial, monospace" font-size="16">Community-based learning</text><path d="M-1370.9999999999998,87 L-1148,87 C-1088,87 -1088,129 -1028,129" stroke="#5DD6CC" stroke-width="4" fill="none" /><path d="M-1328.4399999999998,129 L-1148,129 C-1088,129 -1088,129 -1028,129" stroke="#5DD6CC" stroke-width="4" fill="none" /><path d="M-1334.0399999999997,171 L-1148,171 C-1088,171 -1088,129 -1028,129" stroke="#5DD6CC" stroke-width="4" fill="none" /><text x="-1028" y="122" fill="black" font-family="Arial, monospace" font-size="16">Dynamic Longitudinal Processes</text><text x="-1371" y="80" fill="black" font-family="Arial, monospace" font-size="16">Real-time learner models</text><text x="-1328" y="122" fill="black" font-family="Arial, monospace" font-size="16">Predictive analytics</text><text x="-1334" y="164" fill="black" font-family="Arial, monospace" font-size="16">Affective computing</text></svg>